name D:\school\WTK\thesis\model\3dpredictsim\Results\batch_windlass\Pog_s1_tmt_bCst_d00_k500_WL30_ig24_act_TTC.mot
datacolumns 128
datarows 4
range 0.00000000 0.03585895
endheader
time	pelvis_tilt	pelvis_list	pelvis_rotation	pelvis_tx	pelvis_ty	pelvis_tz	hip_flexion_l	hip_adduction_l	hip_rotation_l	hip_flexion_r	hip_adduction_r	hip_rotation_r	knee_angle_l	knee_angle_r	ankle_angle_l	ankle_angle_r	subtalar_angle_l	subtalar_angle_r	tmt_angle_l	tmt_angle_r	mtp_angle_l	mtp_angle_r	lumbar_extension	lumbar_bending	lumbar_rotation	arm_flex_l	arm_add_l	arm_rot_l	arm_flex_r	arm_add_r	arm_rot_r	elbow_flex_l	elbow_flex_r	pro_sup_l	pro_sup_r	glut_med1_l/activation	glut_med2_l/activation	glut_med3_l/activation	glut_min1_l/activation	glut_min2_l/activation	glut_min3_l/activation	semimem_l/activation	semiten_l/activation	bifemlh_l/activation	bifemsh_l/activation	sar_l/activation	add_long_l/activation	add_brev_l/activation	add_mag1_l/activation	add_mag2_l/activation	add_mag3_l/activation	tfl_l/activation	pect_l/activation	grac_l/activation	glut_max1_l/activation	glut_max2_l/activation	glut_max3_l/activation	iliacus_l/activation	psoas_l/activation	quad_fem_l/activation	gem_l/activation	peri_l/activation	rect_fem_l/activation	vas_med_l/activation	vas_int_l/activation	vas_lat_l/activation	med_gas_l/activation	lat_gas_l/activation	soleus_l/activation	tib_post_l/activation	flex_dig_l/activation	flex_hal_l/activation	tib_ant_l/activation	per_brev_l/activation	per_long_l/activation	per_tert_l/activation	ext_dig_l/activation	ext_hal_l/activation	ercspn_l/activation	intobl_l/activation	extobl_l/activation	glut_med1_r/activation	glut_med2_r/activation	glut_med3_r/activation	glut_min1_r/activation	glut_min2_r/activation	glut_min3_r/activation	semimem_r/activation	semiten_r/activation	bifemlh_r/activation	bifemsh_r/activation	sar_r/activation	add_long_r/activation	add_brev_r/activation	add_mag1_r/activation	add_mag2_r/activation	add_mag3_r/activation	tfl_r/activation	pect_r/activation	grac_r/activation	glut_max1_r/activation	glut_max2_r/activation	glut_max3_r/activation	iliacus_r/activation	psoas_r/activation	quad_fem_r/activation	gem_r/activation	peri_r/activation	rect_fem_r/activation	vas_med_r/activation	vas_int_r/activation	vas_lat_r/activation	med_gas_r/activation	lat_gas_r/activation	soleus_r/activation	tib_post_r/activation	flex_dig_r/activation	flex_hal_r/activation	tib_ant_r/activation	per_brev_r/activation	per_long_r/activation	per_tert_r/activation	ext_dig_r/activation	ext_hal_r/activation	ercspn_r/activation	intobl_r/activation	extobl_r/activation	
          0.00000000	         -2.92949123	         -0.98088704	          7.54673798	          0.00000000	          0.86070919	         -0.00202251	        -14.87922719	         -2.15258362	          7.55771823	         32.35082448	          0.62485432	         -1.21524645	        -16.94443927	        -17.11060596	         -6.06615826	          9.69964430	         18.80015556	          3.18035559	         -9.57714186	         -0.23097893	         32.29301703	          0.75678764	          0.30406062	         -1.17218641	         -2.75934220	          3.12568005	        -13.51718569	         17.53498409	        -14.73249728	        -13.54425841	          7.33457463	         44.48687500	         19.68183051	         86.51662706	         86.51662706	          0.13811071	          0.06217175	          0.06451659	          0.16427443	          0.11495090	          0.07851037	          0.05000053	          0.05000006	          0.05000007	          0.05000011	          0.06427431	          0.18814070	          0.11501299	          0.06152367	          0.05000135	          0.05000025	          0.14296867	          0.05996025	          0.05004157	          0.05000313	          0.05000113	          0.05000074	          0.26134225	          0.50121262	          0.08396442	          0.05000055	          0.05000041	          0.25790598	          0.05996115	          0.06686159	          0.12400934	          0.13379937	          0.18275386	          0.05000000	          0.10819355	          0.12046008	          0.13508608	          0.34583132	          0.42341980	          0.31777445	          0.62319311	          0.51233791	          0.26636026	          0.05000000	          0.05000023	          0.06814693	          0.06432921	          0.05000017	          0.09448829	          0.05000028	          0.05000031	          0.05000098	          0.10099909	          0.07190580	          0.17112076	          0.05000019	          0.05000048	          0.05996097	          0.18882671	          0.18601817	          0.19051109	          0.13876836	          0.05000007	          0.05995456	          0.07190576	          0.05000019	          0.11021001	          0.12179190	          0.05727367	          0.05495501	          0.14387080	          0.05000032	          0.05145663	          0.05000003	          0.12882385	          0.13424421	          0.11405620	          0.05996081	          0.05996081	          0.05996081	          0.05000001	          0.05000017	          0.05000037	          0.54452437	          0.28000399	          0.16749984	          0.06895661	          0.64322887	          0.40705121	          0.05000001	          0.10155544	          0.10340943	
          0.01195298	         -2.92359851	         -0.87656104	          7.67292051	          0.01924962	          0.85959951	         -0.00172047	        -14.96579331	         -2.26578444	          7.30704047	         31.54521438	          0.85749968	         -0.98893090	        -18.39446321	        -16.92329579	         -8.32200735	          9.14208779	         19.17178293	          2.88215866	         -9.87456873	         -0.27015271	         32.10410250	          1.00695664	          0.55812818	         -1.03467131	         -2.84989667	          2.66545706	        -13.57974628	         17.77436266	        -16.06984243	        -13.52289026	          7.28418222	         45.55595078	         19.66370903	         86.51662706	         86.51662706	          0.11516748	          0.05184371	          0.07190597	          0.13698484	          0.09585504	          0.06546829	          0.05996040	          0.05996077	          0.06603667	          0.05000013	          0.05359698	          0.24734136	          0.24839103	          0.28090853	          0.10358522	          0.10148334	          0.11921843	          0.05000049	          0.05000062	          0.05000161	          0.05003968	          0.07190602	          0.21792753	          0.41795017	          0.15433014	          0.07190644	          0.07190603	          0.21506210	          0.05000033	          0.05575446	          0.10340898	          0.11157233	          0.15239441	          0.05000000	          0.09022021	          0.10044901	          0.11264530	          0.52024879	          0.41048856	          0.30149229	          0.60172832	          0.60699193	          0.22211194	          0.05632154	          0.07190598	          0.07184825	          0.05364274	          0.06893275	          0.14322141	          0.05000006	          0.05000007	          0.05000021	          0.08422091	          0.05996069	          0.14269382	          0.05000002	          0.05000003	          0.05000017	          0.15745848	          0.33102872	          0.26768908	          0.14164255	          0.05996069	          0.05000024	          0.05996075	          0.05996086	          0.14326351	          0.15024372	          0.05000000	          0.05000001	          0.35980828	          0.07190328	          0.07179158	          0.07190599	          0.25749693	          0.25856047	          0.22410924	          0.05000000	          0.05000000	          0.05000000	          0.05034746	          0.07190576	          0.05000035	          0.65359214	          0.28443744	          0.18602402	          0.43577794	          0.66470387	          0.43145604	          0.05000000	          0.08468483	          0.08623084	
          0.02390596	         -2.91256347	         -0.78106037	          7.76229544	          0.03850131	          0.85796592	         -0.00144894	        -14.84707755	         -2.33921173	          7.05746723	         30.60607824	          1.05902261	         -0.70078888	        -20.32702288	        -17.30640785	        -10.06098153	          8.49550839	         19.44077700	          2.54371346	         -9.49531208	         -0.64496046	         30.00249258	          1.19871044	          0.79990991	         -0.87388583	         -2.92158852	          2.16968315	        -13.64928569	         17.93574706	        -17.31502955	        -13.52540965	          7.38422309	         46.61254782	         19.51015922	         86.51662706	         86.51662706	          0.22631067	          0.05996084	          0.05996083	          0.11422866	          0.07993143	          0.05996086	          0.05000042	          0.05000014	          0.05506662	          0.05000004	          0.05004004	          0.20625252	          0.27494110	          0.23424345	          0.08637759	          0.08462476	          0.09941366	          0.07244469	          0.05996165	          0.05994793	          0.05996000	          0.05996094	          0.18172496	          0.38414972	          0.12869252	          0.05996126	          0.05996086	          0.17933553	          0.08623071	          0.07946975	          0.08623050	          0.09303770	          0.12707833	          0.05000000	          0.07523264	          0.08376223	          0.09393244	          0.43382396	          0.37462375	          0.25919397	          0.50176800	          0.78128129	          0.50615516	          0.08572265	          0.05996081	          0.05996082	          0.24865534	          0.27398134	          0.38791697	          0.11218849	          0.05000432	          0.24197042	          0.10303776	          0.05000002	          0.13784857	          0.05000001	          0.05000063	          0.07190599	          0.13130123	          0.27603757	          0.22717143	          0.16901232	          0.05000005	          0.07190579	          0.05000012	          0.05000005	          0.17249348	          0.16314784	          0.05353268	          0.05000012	          0.30003618	          0.05995865	          0.28690454	          0.05996082	          0.21472101	          0.21560788	          0.18687975	          0.05996079	          0.05996079	          0.05996081	          0.05000001	          0.05996074	          0.05996079	          0.60258829	          0.30016721	          0.15512133	          0.58862592	          0.73815073	          0.51215562	          0.05000006	          0.08623086	          0.07190599	
          0.03585895	         -2.89872631	         -0.70781492	          7.80771498	          0.05755101	          0.85600807	         -0.00116303	        -14.54558315	         -2.40074992	          6.83947745	         29.60799347	          1.26184341	         -0.38670102	        -22.66038501	        -17.84033490	        -11.31493634	          8.27385972	         19.63065073	          2.18371860	         -8.50356946	         -1.44915091	         26.13242791	          1.36851419	          1.01892080	         -0.67994394	         -2.97693039	          1.67594470	        -13.71453224	         18.02675866	        -18.40649735	        -13.54526689	          7.65465063	         47.59514072	         19.17573133	         86.51662706	         86.51662706	          0.18871551	          0.05000005	          0.05000002	          0.13284660	          0.06665310	          0.05000010	          0.05718857	          0.05000004	          0.05000003	          0.05000007	          0.05996057	          0.19852355	          0.22926736	          0.19533049	          0.07202846	          0.07056677	          0.08289890	          0.06041019	          0.05000077	          0.05000019	          0.05000012	          0.05000014	          0.15153644	          0.37768383	          0.10731385	          0.05000041	          0.05000006	          0.14954394	          0.07190590	          0.06626809	          0.07190574	          0.07758208	          0.10596781	          0.05000000	          0.06273484	          0.06984750	          0.07832820	          0.51120275	          0.31239050	          0.21613613	          0.45212538	          0.65149319	          0.42207159	          0.11674388	          0.05000000	          0.05000001	          0.34807295	          0.44740937	          0.56911033	          0.25221906	          0.26531461	          0.43661706	          0.08592091	          0.10364934	          0.11494888	          0.07190611	          0.05000101	          0.05996083	          0.10948920	          0.23018167	          0.23137016	          0.18965630	          0.05000003	          0.05996076	          0.10519873	          0.30769114	          0.24512386	          0.21417239	          0.05000004	          0.05000003	          0.25019356	          0.05000022	          0.27618553	          0.05000000	          0.17905115	          0.27846601	          0.22943302	          0.05000000	          0.05000000	          0.05000000	          0.05000000	          0.05000003	          0.05000001	          0.77883057	          0.25030282	          0.12935226	          0.77106014	          0.77914758	          0.64108276	          0.06999948	          0.07190601	          0.05996082	
